#!OML:ASF F:\VICON\USERDATA\INSTALL\rory3\rory3.ASF
:FULLY-SPECIFIED
:DEGREES
72
root 0.5387521597870708 17.75737658325541 33.805776225192446 -3.0314471177220375 1.6565683276961725 -2.0647376244593825
lfemur 9.555722639605754 -4.913635309302602 -19.484936736678087
ltibia 46.41005646275614
lfoot 12.166288081022275 -17.657802833349283
ltoes -14.105317383643232
rfemur -25.717744990530583 4.571200619689085 25.862692035026377
rtibia 30.800420720545276
rfoot -3.2833243843289996 -4.86338982047347
rtoes 11.339884334005907
lowerback 9.936767263637394 -1.7991988843705395 -0.8286284668715014
upperback 0.2710844392311024 -2.33536790869597 3.1858202057943377
thorax -5.1625970579889495 -1.0867717901443106 4.0740471531741695
lowerneck -16.06289389331882 -2.1548052515537925 -2.463919995671108
upperneck 20.090705481277602 -2.4155826924152457 0.2675568855924424
head 8.965703793980389 -1.290414487178147 0.16332463532986854
lclavicle -1.0215630619210002e-15 -8.569697473111989e-16
lhumerus -23.586782883655523 -1.3820374190321412 81.41611882632277
lradius 28.691735349081505
lwrist 6.801944786122885
lhand -30.467062716292798 21.05572853150151
lfingers 7.125020000000057
lthumb -3.768200532385613 51.00134059971905
rclavicle -1.0215630619210002e-15 -8.569697473111989e-16
rhumerus -41.05080555007062 -33.84073560959599 -66.83391126324224
rradius 15.551334797230922
rwrist 16.007415103373724
rhand -17.29388352162248 30.359973183458475
rfingers 7.125020000000057
rthumb 8.952106393803621 -6.707145472373357
73
root 0.5070469488111564 17.877541352530287 34.86771187597612 -3.4719358619141056 1.527086537345241 -3.4076851726729736
lfemur 3.770910239810817 -3.591318550453746 -16.77131205470974
ltibia 58.73775525544243
lfoot 17.832248297019436 -19.299109104428837
ltoes -7.817273384904059
rfemur -21.926576745055403 5.0762510401397005 28.2235605230785
rtibia 31.79158496676704
rfoot -4.810782527768238 -4.97848686255929
rtoes 14.052477128976976
lowerback 10.180618613834424 -1.5939139567243394 0.44187383378168643
upperback 0.32456838916801684 -1.9111336596720072 3.4493152226484414
thorax -5.243773756794269 -0.9031623728895252 3.6158493772028977
lowerneck -15.696606774317829 -2.2349259032907134 -2.442052189267292
upperneck 20.28780869838121 -2.557591587948971 0.3821777865863043
head 8.964147433716741 -1.3516778279614652 0.1843382269893545
lclavicle -6.295428832405197e-16 -5.534273938746601e-16
lhumerus -24.727817423304025 -1.1332970629623274 82.29587754994242
lradius 28.69014261982273
lwrist 6.025409858038529
lhand -29.68116055821062 21.801669523124783
lfingers 7.125020000000058
lthumb -3.0092562130595715 51.751102551081026
rclavicle -6.295428832405197e-16 -5.534273938746601e-16
rhumerus -40.09644103895946 -32.135548484898536 -67.95867907223298
rradius 16.957351579123113
rwrist 15.018942882115198
rhand -17.172642230825023 30.487633422106068
rfingers 7.125020000000058
rthumb 9.06912405045791 -6.168024269378891
74
root 0.47075214911943597 17.97548341292385 35.18952502238173 -3.8586765477399485 1.0835949421455673 -4.4411903265501405
lfemur -2.787857737716813 -2.035870663801872 -14.875523070222073
ltibia 68.47708501089075
lfoot 17.32660029901744 -18.421377318244627
ltoes -4.376217539163191
rfemur -18.56283867816964 5.5302144876098875 29.902653466749776
rtibia 30.930962179115852
rfoot -6.956381276142759 -5.639232617659034
rtoes 14.701548490850715
lowerback 10.30493742979083 -1.2953871699863306 1.3336882761976336
upperback 0.40703747296227216 -1.410415138343677 3.4846960082651717
thorax -5.291488664389403 -0.6764020773946501 3.02331568691236
lowerneck -15.396667690424085 -2.398838342812229 -2.4513984664015753
upperneck 20.34474317858191 -2.842434343178171 0.557998570049947
head 8.92957103767711 -1.465244723755743 0.22005219999006234
lclavicle -8.317294819705026e-16 -7.099810640580679e-16
lhumerus -25.923120239054818 -1.15882317291668 82.77102656810263
lradius 27.35129562565055
lwrist 4.744781650981038
lhand -29.312620933605942 21.860505229013654
lfingers 7.125020000000057
lthumb -2.6533459135896527 51.81564596320582
rclavicle -8.317294819705026e-16 -7.099810640580679e-16
rhumerus -38.56969338461205 -30.064032231615695 -70.29644447257996
rradius 17.51759341721852
rwrist 13.232309252198885
rhand -17.087241383446614 30.449245534579433
rfingers 7.125020000000057
rthumb 9.151624637293981 -6.002471604386975
75
root 0.46697580092419566 18.053976737047325 36.04912461413578 -4.039412334209252 0.5258596016246044 -5.014443689088083
lfemur -8.532530597520061 -0.2757936289988411 -13.5448225702916
ltibia 75.85557078761724
lfoot 12.321226129686474 -15.509047024707726
ltoes -4.149278132269561
rfemur -14.933065683660134 5.980641614545202 31.29660283233202
rtibia 30.394537991064148
rfoot -8.940972740072164 -6.184958708509519
rtoes 14.61945019134432
lowerback 10.434782672511025 -0.848519056589245 2.110540609782884
upperback 0.5185752108353967 -0.7286777898204263 3.383678147179329
thorax -5.221561058791714 -0.3624062356135269 2.4379516131275483
lowerneck -15.085714693941348 -2.533100470553747 -2.4399630674452064
upperneck 20.555816190530074 -3.0817951416832683 0.7851960738476027
head 8.948077315290513 -1.5585455727724788 0.27128988082108696
lclavicle -4.678282666644928e-16 -4.2821130259327464e-16
lhumerus -26.66590346110334 -0.6780699774535082 83.14323544297908
lradius 27.137636499277008
lwrist 4.170471779918447
lhand -29.246671102809714 21.768846088460403
lfingers 7.125020000000058
lthumb -2.5896299276130534 51.73215596169979
rclavicle -4.678282666644928e-16 -4.2821130259327464e-16
rhumerus -36.112732668149434 -27.125856231269122 -72.65600416767664
rradius 19.295461766914975
rwrist 11.596087217365032
rhand -16.972440639380718 30.575104471627757
rfingers 7.125020000000058
rthumb 9.262525899041322 -6.0957284710791795
76
root 0.445231415518962 18.077384171087722 36.06732410408441 -4.210077648074877 -0.3394459824255307 -5.521464804261772
lfemur -14.535604660140852 1.2892456480078514 -13.017429888593636
ltibia 78.9049196535742
lfoot 4.763075162233632 -12.1405445367518
ltoes -6.245881452511477
rfemur -12.286407434384264 6.150829173526205 32.15855992978736
rtibia 29.112473631506102
rfoot -11.602212648370903 -6.8107316608098785
rtoes 13.956414812753753
lowerback 10.415063224268383 -0.38164317754415866 2.6709173333937555
upperback 0.5784351424293386 -0.04444634033477601 3.1404482637151148
thorax -5.207517471687386 -0.04306523134572782 1.6788230403966522
lowerneck -14.931885961527039 -2.6666597320129206 -2.4292597121344164
upperneck 20.614563884830194 -3.315309997784312 0.8881796687010388
head 8.941127536481044 -1.6490706496404768 0.28433497343738945
lclavicle -9.279553648094698e-16 -7.844890442364051e-16
lhumerus -28.021006938440962 -0.20616739278539242 83.02746864034009
lradius 25.699464684713767
lwrist 3.695216574598497
lhand -29.570301292605077 20.86263582395985
lfingers 7.125020000000057
lthumb -2.902116323506029 50.83468338887013
rclavicle -9.279553648094698e-16 -7.844890442364051e-16
rhumerus -33.991318513620506 -24.531528456416684 -75.37779072830901
rradius 19.85614609700552
rwrist 9.354601675983552
rhand -16.976289579894907 30.273534915642305
rfingers 7.125020000000057
rthumb 9.258874714123102 -6.9468621085298015
